<?xml version="1.0" encoding="utf-8"?>
<!-- Generator: Adobe Illustrator 27.5.0, SVG Export Plug-In . SVG Version: 6.00 Build 0)  -->
<svg version="1.1" xmlns="http://www.w3.org/2000/svg" xmlns:xlink="http://www.w3.org/1999/xlink" x="0px" y="0px"
	 viewBox="0 0 750 500" style="enable-background:new 0 0 750 500;" xml:space="preserve">
<g id="BACKGROUND">
	<rect style="fill:#EBAE48;" width="750" height="500"/>
</g>
<g id="OBJECTS">
	<g>
		<ellipse style="fill:#BA8B3B;" cx="392.772" cy="443.689" rx="208.127" ry="7.897"/>
		<g>
			<path style="fill:#759A73;" d="M535.232,349.258c-31.181,0.223-64.506,7.598-76.199,7.598c-11.693,0-66.26,1.066-66.26,1.066
				s-54.567-1.066-66.26-1.066c-11.693,0-45.018-7.374-76.199-7.598c-31.181-0.224-39.089,34.89-28.132,55.703
				c23.452,44.547,92.249,40.611,114.855,40.611c22.606,0,55.736,0,55.736,0s33.13,0,55.736,0c22.606,0,91.403,3.937,114.855-40.611
				C574.321,384.149,566.413,349.035,535.232,349.258z"/>
			<path style="fill:#578351;" d="M281.48,351.346c10.453,8.502,30.667,24.686,39.601,30.079
				c12.326,7.441,41.736,28.33,76.814,28.33c32.278,0,80.156-46.658,105.262-58.307c-19.534,2.246-36.468,5.408-44.125,5.408
				c-11.693,0-66.26,1.066-66.26,1.066s-54.567-1.066-66.26-1.066C318.737,356.856,301.394,353.597,281.48,351.346z"/>
			<path style="fill:#759A73;" d="M268.493,359.443c17.222,1.067,34.236,5.997,42.311,8.804c8.075,2.806,11.961,8.12,23.924,11.913
				c11.963,3.793,18.072,2.682,30.884,7.135c12.812,4.453,13.76,10.956,24.556,13.582c10.796,2.626,21.64,8.879,21.64,8.879
				l-6.938,35.816c-7.247,0-12.1,0-12.1,0s-33.13,0-55.736,0c-21.097,0-82.417,3.422-109.573-32.327
				C214.819,396.182,235.532,357.401,268.493,359.443z"/>
			<path style="fill:#578351;" d="M392.319,401.447C392.319,401.447,392.319,401.447,392.319,401.447
				c-0.011,0.002-18.584,0-32.256,8.231c-12.535,7.546-24.844,17.825-34.013,11.206c-14.45-10.433-35.453-12.797-38.533,8.553
				c-1.147,7.954,3.268,10.843,5.713,14.618c18.105,2.148,34.701,1.517,43.805,1.517c22.606,0,55.737,0,55.737,0s3.826,0,9.75,0
				L392.319,401.447z"/>
			<g>
				<path style="fill:#212D52;" d="M358.809,426.953c-8.02-5.147-15.082-4.49-20.947-1.467c-5.865,3.023-8.75,3.207-13.897,1.083
					c-5.147-2.124-14.95-14.698-30.631-4.643c-13.259,8.502-7.9,23.599,10.047,23.599c11.02,0,46.091,0,50.639,0
					C358.57,445.525,358.809,426.953,358.809,426.953z"/>
				<path style="fill:#E38483;" d="M379.692,416.969l-37.875,14.613c0,0,8.976,2.069,4.828,10.828
					c-0.695,1.468,0.322,3.162,1.946,3.162h39.601L379.692,416.969z"/>
				<path style="fill:#C95C5C;" d="M379.692,416.969l-19.629,7.573c5.945,4.373,15.406,12.437,17.988,21.03h10.141L379.692,416.969z
					"/>
			</g>
			<g>
				
					<line style="fill:none;stroke:#395535;stroke-width:0.5385;stroke-miterlimit:10;" x1="396.001" y1="364.308" x2="396.001" y2="398.504"/>
				<path style="fill:none;stroke:#395535;stroke-width:0.5385;stroke-miterlimit:10;" d="M403.817,362.99c0,0,0,9.302,0,14.113
					c0,4.811-4.084,8.34-7.816,9.088"/>
				
					<line style="fill:none;stroke:#395535;stroke-width:0.5385;stroke-miterlimit:10;" x1="383.824" y1="381.915" x2="424.132" y2="381.406"/>
				<path style="fill:none;stroke:#395535;stroke-width:0.5385;stroke-miterlimit:10;" d="M414.509,372.506
					c0,0-33.786,6.308-42.981,6.308"/>
			</g>
			<path style="fill:#759A73;" d="M517.051,359.443c-17.222,1.067-34.236,5.997-42.311,8.804
				c-8.075,2.806-11.961,8.12-23.924,11.913c-11.963,3.793-18.071,2.682-30.884,7.135c-12.812,4.453-13.76,10.956-24.556,13.582
				c-10.796,2.626-21.641,8.879-21.641,8.879l6.938,35.816c7.247,0,12.1,0,12.1,0s33.13,0,55.736,0
				c21.097,0,82.417,3.422,109.573-32.327C570.725,396.182,550.012,357.401,517.051,359.443z"/>
			<path style="fill:#395535;" d="M382.492,405.402c-5.136,2.268-8.757,4.354-8.757,4.354l6.938,35.816c4.682,0,8.354,0,10.375,0
				L382.492,405.402z"/>
			<path style="fill:#578351;" d="M520.456,386.777c10.712-6.486-0.86,14.84,15.004,21.877c7.202,3.195,1.673,5.731-9.248,7.04
				c-10.921,1.309-18.006-0.857-18.361-7.164C507.495,402.224,511.148,392.413,520.456,386.777z"/>
			<path style="fill:#578351;" d="M232.862,391.445c2.828-8.817,11.767-10.747,13.481-4.978c1.015,3.415-0.207,11.351-5.185,16.046
				C236.181,407.208,229.336,402.437,232.862,391.445z"/>
			<path style="fill:none;stroke:#395535;stroke-width:0.5385;stroke-miterlimit:10;" d="M480.846,366.279
				c0,0,24.544-10.069,47.081-8.356"/>
			<path style="fill:none;stroke:#395535;stroke-width:0.5385;stroke-miterlimit:10;" d="M504.387,361.387
				c0,0,12.066-2.526,29.635,5.575"/>
		</g>
		<polygon style="fill:#C95C5C;" points="205.432,307.016 248.318,278.142 240.46,214.816 		"/>
		<g>
			<g>
				<g id="XMLID_1_">
					<path style="fill:#4564BD;" d="M403.456,176.367l2.115-5.274c0,0,53.926,7.93,63.443,9.622
						c9.516,1.692,26.971,7.797,32.356,30.347c3.384,14.169,9.622,13.535,15.015,22.945c5.393,9.411,2.538,13.852,6.556,18.398
						c4.018,4.547,4.335,12.266,4.335,12.266h-66.768c0,0,10.965,67.499,14.233,77.053c6.987,6.672,8.27,9.213,8.393,12.328
						c0.317,8.039-19.609,6.034-40.978,6.034c-21.369,0-50.783,12.821-75.923,12.821c-25.14,0-45.755-8.799-54.805-19.861
						l-15.084-152.851l51.788-20.467l5.028,5.634L403.456,176.367z"/>
				</g>
				<path style="fill:#364D90;" d="M351.765,206.336l-51.247,36.172l10.908,110.538c9.05,11.062,29.665,19.861,54.805,19.861
					c25.14,0,54.554-12.821,75.923-12.821c21.369,0,41.295,2.005,40.978-6.034c-0.123-3.116-1.406-5.657-8.393-12.328
					c-2.577-7.533-9.94-51.095-12.938-69.18c-1.851-0.584-3.759-1.141-5.763-1.651C378.874,251.277,351.765,206.336,351.765,206.336
					z"/>
				<path style="fill:#212D52;" d="M357.002,315.219c37.038,11.224,99.285,26.228,122.857,31.817
					c-1.219-1.449-2.87-3.164-5.12-5.312c-1.068-3.121-2.957-12.431-5.017-23.546l-114.36-13.224L357.002,315.219z"/>
				<g>
					<path style="fill:#4564BD;" d="M372.621,357.12c1.941,0.406,4.005,0.506,6.028,0.498c1.016,0.028,2.032-0.06,3.048-0.083
						l3.043-0.24c4.053-0.416,8.062-1.189,12.034-2.1c7.931-1.905,15.672-4.56,23.226-7.645c7.543-3.119,15.025-6.431,22.391-9.954
						c3.686-1.758,7.327-3.61,10.9-5.578c1.79-0.979,3.549-2.008,5.281-3.078c1.688-1.094,3.473-2.22,4.838-3.585l0.444,0.345
						c-0.752,0.822-1.565,1.405-2.395,2.033c-0.831,0.61-1.688,1.177-2.546,1.742c-1.735,1.097-3.488,2.164-5.285,3.148
						c-3.581,1.992-7.225,3.865-10.913,5.642c-7.375,3.559-14.83,6.93-22.425,10c-7.595,3.065-15.38,5.697-23.364,7.579
						c-3.999,0.899-8.037,1.66-12.125,2.063l-3.072,0.229c-1.028,0.02-2.053,0.103-3.082,0.071c-2.06-0.004-4.108-0.102-6.171-0.542
						L372.621,357.12z"/>
				</g>
				<path style="fill:#759A73;" d="M405.57,171.093l-2.115,5.274l-50.297,8.995l-5.028-5.634l-5.753,2.274
					c3.515,12.375,10.403,27.511,39.245,23.749c24.439-3.188,28.036-27.013,28.567-33.977
					C407.302,171.348,405.57,171.093,405.57,171.093z"/>
				<g>
					<path style="fill:#364D90;" d="M484.597,218.426c-5.343,3.625-10.67,7.271-15.89,11.068c-2.607,1.902-5.224,3.79-7.794,5.74
						c-2.565,1.954-5.126,3.924-7.619,5.957l-0.387-0.451c2.454-2.123,4.99-4.125,7.555-6.097c2.567-1.966,5.151-3.912,7.78-5.794
						c2.63-1.881,5.28-3.732,7.95-5.556c2.663-1.832,5.366-3.607,8.079-5.363L484.597,218.426z"/>
				</g>
				<g>
					<path style="fill:#364D90;" d="M484.367,245.409c-2.561-0.516-5.177-0.86-7.787-1.119c-2.615-0.245-5.241-0.351-7.863-0.325
						c-2.623,0.004-5.243,0.183-7.842,0.509l-1.945,0.283c-0.646,0.107-1.284,0.255-1.926,0.38
						c-1.295,0.213-2.543,0.615-3.817,0.923l-0.173-0.551c2.536-0.786,5.125-1.428,7.761-1.766c2.63-0.348,5.282-0.591,7.936-0.576
						c5.305,0.013,10.606,0.488,15.789,1.679L484.367,245.409z"/>
				</g>
				<g>
					<path style="fill:#4564BD;" d="M409.149,339.748c-2.175,0.715-4.405,1.141-6.653,1.491c-2.255,0.279-4.527,0.446-6.8,0.428
						c-2.274,0.014-4.546-0.16-6.802-0.426l-3.373-0.514l-3.326-0.763l-0.832-0.192l-0.814-0.257l-1.628-0.514
						c-1.085-0.345-2.171-0.684-3.207-1.16l-3.146-1.321c-1.018-0.505-2.017-1.051-3.026-1.574l-1.504-0.803
						c-0.502-0.267-0.959-0.609-1.441-0.909l-2.853-1.861c-0.236-0.157-0.479-0.305-0.709-0.47l-0.666-0.531l-1.331-1.061
						l-2.657-2.121l0.244-0.29l2.715,2.014l1.355,1.006c0.445,0.345,0.905,0.668,1.391,0.953l2.861,1.786
						c0.482,0.288,0.94,0.617,1.442,0.871l1.502,0.764c1,0.51,1.989,1.043,2.997,1.535l3.113,1.282
						c1.024,0.463,2.099,0.79,3.17,1.123l1.6,0.521l0.8,0.261l0.818,0.196l3.274,0.784l3.323,0.538
						c2.225,0.284,4.467,0.477,6.713,0.484c4.481,0.03,9.015-0.399,13.325-1.629L409.149,339.748z"/>
				</g>
				<g>
					<path style="fill:#4564BD;" d="M405.387,259.6c-2.782,2.178-5.573,4.345-8.383,6.487l-8.446,6.402l-8.5,6.33
						c-2.844,2.096-5.702,4.173-8.577,6.227l-0.485-0.646c2.776-2.187,5.569-4.351,8.376-6.496l8.453-6.393l8.507-6.321
						c2.841-2.099,5.702-4.173,8.57-6.236L405.387,259.6z"/>
				</g>
				<path style="fill:none;stroke:#364D90;stroke-width:1.0769;stroke-miterlimit:10;" d="M454.896,264.671h-8.104
					c0,0-2.65-5.875-2.038-12.806c0.611-6.93-5.911-30.983-5.911-30.983"/>
			</g>
			<g>
				<path style="fill:#212D52;" d="M375.855,140.18c0,0,4.041-17.766-1.51-26.689c-4.971-7.99-16.741-0.836-16.741-0.836
					s-4.026-6.834-13.202-6.296c-9.176,0.538-11.402,8.712,0.663,9.834c0,0-11.723,2.141-23.833,12.637
					c-12.11,10.495-7.973,27.608,7.401,27.853c15.373,0.245,21.932,0,21.932,0L375.855,140.18z"/>
				<path style="fill:none;stroke:#4564BD;stroke-width:0.5385;stroke-miterlimit:10;" d="M325.164,130.596
					c-7.736,7.799-7.647,15.329-2.312,20.234c5.335,4.905,17.825,1.473,17.825,1.473"/>
				<path style="fill:none;stroke:#4564BD;stroke-width:0.5385;stroke-miterlimit:10;" d="M327.341,133.617
					c-4.856,6.181-5.18,10.633-2.347,13.708c2.833,3.075,10.035,2.436,10.035,2.436"/>
				<path style="fill:none;stroke:#4564BD;stroke-width:0.5385;stroke-miterlimit:10;" d="M329.873,136.639
					c-2.463,3.481-3.465,6.419-1.662,8.555"/>
				<path style="fill:#E38483;" d="M379.023,150.829l13.346,20.47l13.848,1.806c0,0-3.585,27.069-29.401,28.799
					c-23.828,1.597-28.498-15.052-29.903-20.069l13.647-5.017l-4.616-11.74L379.023,150.829z"/>
				<path style="fill:#C95C5C;" d="M389.154,166.368l-10.131-15.539l-23.079,14.249l2.927,7.444
					C366.361,174.749,385.036,178.887,389.154,166.368z"/>
				<g>
					<path style="fill:#DF6666;" d="M345.774,154.9c2.648,2.786,3.114,6.642,1.042,8.611c-2.072,1.969-5.899,1.307-8.547-1.479
						s-3.114-6.642-1.042-8.611C339.3,151.451,343.126,152.113,345.774,154.9z"/>
					<path style="fill:none;stroke:#763939;stroke-width:0.5385;stroke-miterlimit:10;" d="M342.669,162.355
						c-1.034-0.131-2.136-0.689-3.028-1.627c-1.68-1.768-1.975-4.213-0.661-5.463s3.742-0.829,5.422,0.938"/>
				</g>
				<g>
					<path style="fill:#DF6666;" d="M369.772,137.216c1.801,3.395,5.309,5.062,7.835,3.722c2.526-1.34,3.113-5.179,1.311-8.574
						c-1.801-3.395-5.309-5.062-7.835-3.722C368.557,129.982,367.97,133.82,369.772,137.216z"/>
					<path style="fill:none;stroke:#763939;stroke-width:0.5385;stroke-miterlimit:10;" d="M377.827,136.639
						c0.204-1.023,0.025-2.245-0.582-3.388c-1.143-2.154-3.368-3.211-4.97-2.361c-1.602,0.85-1.975,3.285-0.832,5.439"/>
				</g>
				<path style="fill:#E38483;" d="M351.372,124.794c-0.46,13.173-4.191,24.161-12.348,25.212c2.277,3.164,4.218,5.86,7.489,10.406
					c6.481,9.004,17.229,12.663,26.349,6.099c8.883-6.393,9.064-17.918,2.583-26.922c-3.375-4.689-4.96-6.891-7.253-10.078
					C356.057,131.159,351.372,124.794,351.372,124.794z"/>
				<polyline style="fill:none;stroke:#763939;stroke-width:0.5385;stroke-miterlimit:10;" points="355.132,143.645 
					360.881,154.266 364.221,150.103 				"/>
				<path style="fill:none;stroke:#763939;stroke-width:0.5385;stroke-miterlimit:10;" d="M369.847,149.624
					c0,0,1.154,2.998-4.336,6.949c-5.49,3.951-7.966,1.905-7.966,1.905"/>
				<path style="fill:none;stroke:#763939;stroke-width:1.0769;stroke-miterlimit:10;" d="M384.943,184.144
					c0,0,5.82-3.211,12.041-4.415"/>
				<path style="fill:none;stroke:#763939;stroke-width:0.5385;stroke-miterlimit:10;" d="M357.895,141.49
					c0,0,5.544,0.605,6.844-4.852"/>
				<path style="fill:none;stroke:#763939;stroke-width:0.5385;stroke-miterlimit:10;" d="M346.139,149.741
					c0,0,5.544,0.605,6.844-4.852"/>
				<path style="fill:none;stroke:#212D52;stroke-width:2.1539;stroke-miterlimit:10;" d="M354.749,136.13
					c0,0,4.302-2.956,9.472-2.956"/>
				<path style="fill:none;stroke:#212D52;stroke-width:2.1539;stroke-miterlimit:10;" d="M350.618,138.864
					c0,0-5.355,1.821-7.905,6.96"/>
			</g>
		</g>
		<path style="opacity:0.3;" d="M353.592,366.354h-97.632c-6.392,0-11.574-5.182-11.574-11.574V196.073
			c0-6.392,5.182-11.574,11.574-11.574h97.632c6.392,0,11.574,5.182,11.574,11.574V354.78
			C365.167,361.172,359.985,366.354,353.592,366.354z"/>
		<path style="fill:#F9EADA;" d="M348.488,361.584h-97.632c-6.392,0-11.574-5.182-11.574-11.574V191.303
			c0-6.392,5.182-11.574,11.574-11.574h97.632c6.392,0,11.574,5.182,11.574,11.574V350.01
			C360.063,356.402,354.881,361.584,348.488,361.584z"/>
		<g>
			<rect x="253.979" y="194.891" style="fill:#C8D8FD;" width="91.386" height="91.386"/>
			<rect x="260.854" y="216.145" style="fill:#4564BD;" width="19.474" height="59.281"/>
			<rect x="286.658" y="235.332" style="fill:#4564BD;" width="15.449" height="40.094"/>
			<path style="fill:#364D90;" d="M253.979,252.191c10.595,0,13.147,7.792,13.147,12.48c0,0,1.766-3.178,7.706-3.178
				c5.94,0,7.224,7.573,7.224,7.573s4.925-6.128,15.947-6.128l1.669,23.339h-45.693V252.191z"/>
			<path style="fill:#212D52;" d="M326.594,226.097c0,0,1.973-3.504,2.466-11.869s-4.538-8.545-7.201-8.545
				c0,0-2.17-4.407-6.708-5.217c-4.537-0.809-6.708-0.09-5.918,0.809c0.789,0.899,4.34,2.339,4.833,3.508
				c0,0-8.099-3.494-17.711,0.636c-9.613,4.131-3.187,14.879,8.932,16.093L326.594,226.097z"/>
			<path style="fill:#759A73;" d="M339.215,233.252c3.185,0.292,6.151,0.619,6.151,0.619v52.405h-51.084
				c0,0-3.052-18.517-3.86-23.919c-0.808-5.402-2.74-14.479,22.51-22.628L339.215,233.252z"/>
			<g>
				<path style="fill:#578351;" d="M291.218,267.451c0.163,1.019,0.338,2.11,0.519,3.231h53.629v-3.231H291.218z"/>
				<path style="fill:#578351;" d="M345.366,282.766v-3.231h-52.19c0.194,1.187,0.374,2.282,0.529,3.231H345.366z"/>
				<path style="fill:#578351;" d="M290.424,255.367c-0.304,1.129-0.404,2.211-0.393,3.231h55.335v-3.231H290.424z"/>
			</g>
			<g>
				
					<line style="fill:none;stroke:#395535;stroke-width:0.8077;stroke-miterlimit:10;" x1="304.17" y1="253.653" x2="301.704" y2="286.277"/>
				
					<line style="fill:none;stroke:#395535;stroke-width:0.8077;stroke-miterlimit:10;" x1="298.868" y1="253.653" x2="301.704" y2="265.703"/>
			</g>
			<path style="fill:#E38483;" d="M325.008,223.617l5.594,8.744l8.613,0.891c0,0-6.748,16.031-17.404,16.031
				c-10.655,0-8.88-9.554-8.88-9.554l4.617-1.619l-1.332-2.672c0,0-6.827,4.358-10.211-5.263c-1.51-4.291-3.108-12.469-3.108-12.469
				s4.973,1.295,10.3-5.182c0,0,2.22,3.967,7.858,3.32l1.554,4.696c0,0-0.089-2.267,1.865-2.753
				c1.954-0.486,3.319,2.908,2.588,4.858C326.544,224.031,325.008,223.617,325.008,223.617z"/>
			<path style="fill:none;stroke:#DF6666;stroke-width:0.5385;stroke-miterlimit:10;" d="M316.915,234.931
				c3.205-1.934,6.359-6.097,6.738-11.817"/>
		</g>
		<path style="fill:#AF3A3A;" d="M298.604,327.045h-32.215c-3.777,0-6.84-3.062-6.84-6.84V287.99c0-3.777,3.062-6.84,6.84-6.84
			h32.215c3.777,0,6.84,3.062,6.84,6.84v32.216C305.444,323.983,302.382,327.045,298.604,327.045z"/>
		<g>
			
				<line style="fill:none;stroke:#BA8B3B;stroke-width:2.1205;stroke-linecap:round;stroke-linejoin:round;stroke-miterlimit:10;" x1="255.386" y1="334.205" x2="343.959" y2="334.205"/>
			
				<line style="fill:none;stroke:#BA8B3B;stroke-width:2.1205;stroke-linecap:round;stroke-linejoin:round;stroke-miterlimit:10;" x1="255.386" y1="340.368" x2="343.959" y2="340.368"/>
			
				<line style="fill:none;stroke:#BA8B3B;stroke-width:2.1205;stroke-linecap:round;stroke-linejoin:round;stroke-miterlimit:10;" x1="255.386" y1="346.531" x2="297.458" y2="346.531"/>
		</g>
		<path style="fill:#F9EADA;" d="M291.317,291.523c-6.568-0.628-8.821,5.923-8.821,5.923s-2.252-6.55-8.82-5.923
			c-6.514,0.622-6.917,7.381-4.974,12.596c2.008,5.39,8.172,10.182,13.794,12.596c5.622-2.414,11.786-7.206,13.794-12.596
			C298.234,298.904,297.831,292.145,291.317,291.523z"/>
		<g>
			<path style="fill:#F9EADA;" d="M485.995,36.513c-34.667,0.964-63.046,29.017-64.409,63.671
				c-0.417,10.591,1.673,20.646,5.69,29.651l-25.573,25.599c-1.05,1.051-0.084,2.823,1.368,2.51l37.913-8.171
				c12.482,12.474,29.909,20,49.088,19.383c34.707-1.115,62.981-29.362,64.129-64.068C555.468,66.784,524.256,35.449,485.995,36.513
				z"/>
			<path style="fill:#AF3A3A;" d="M509.645,72.104c-16.825-1.607-22.595,15.172-22.595,15.172s-5.77-16.78-22.596-15.172
				c-16.687,1.594-17.719,18.908-12.741,32.267c5.145,13.807,20.935,26.084,35.337,32.268c14.402-6.184,30.192-18.46,35.337-32.268
				C527.364,91.011,526.332,73.698,509.645,72.104z"/>
		</g>
		<g>
			<path style="fill:#F9EADA;" d="M202.681,331.884h-54.952c-3.812,0-6.902,3.09-6.902,6.902v44.242c0,3.812,3.09,6.902,6.902,6.902
				h16.558c1.447,0,2.754,0.866,3.318,2.198l6.123,14.46c0.552,1.304,2.401,1.304,2.953,0l6.123-14.46
				c0.564-1.333,1.871-2.198,3.318-2.198h16.558c3.812,0,6.902-3.09,6.902-6.902v-44.242
				C209.583,334.974,206.493,331.884,202.681,331.884z"/>
			<path style="fill:#AF3A3A;" d="M188.142,344.148c-9.633-0.92-12.937,8.687-12.937,8.687s-3.304-9.607-12.937-8.687
				c-9.554,0.913-10.145,10.826-7.295,18.475c2.946,7.905,11.986,14.934,20.232,18.475c8.246-3.54,17.286-10.569,20.232-18.475
				C198.287,354.974,197.697,345.061,188.142,344.148z"/>
		</g>
		<g>
			<path style="fill:#F9EADA;" d="M574.375,191.182h-54.952c-3.812,0-6.902,3.09-6.902,6.902v44.242c0,3.812,3.09,6.902,6.902,6.902
				h16.558c1.447,0,2.754,0.866,3.318,2.198l6.123,14.46c0.552,1.305,2.401,1.305,2.953,0l6.123-14.46
				c0.564-1.333,1.871-2.199,3.318-2.199h16.558c3.812,0,6.902-3.09,6.902-6.902v-44.242
				C581.276,194.272,578.186,191.182,574.375,191.182z"/>
			<path style="fill:#AF3A3A;" d="M559.835,203.446c-9.633-0.92-12.937,8.687-12.937,8.687s-3.304-9.607-12.937-8.687
				c-9.554,0.913-10.145,10.826-7.295,18.475c2.946,7.905,11.987,14.934,20.232,18.475c8.246-3.54,17.286-10.569,20.232-18.475
				C569.98,214.271,569.39,204.359,559.835,203.446z"/>
		</g>
		<g>
			<path style="fill:#4564BD;" d="M243.646,103.669h-54.952c-3.812,0-6.902,3.09-6.902,6.902v44.242c0,3.812,3.09,6.902,6.902,6.902
				h16.558c1.447,0,2.754,0.866,3.318,2.199l6.123,14.46c0.552,1.305,2.401,1.305,2.954,0l6.123-14.46
				c0.564-1.333,1.871-2.199,3.318-2.199h16.558c3.812,0,6.902-3.09,6.902-6.902v-44.242
				C250.548,106.759,247.458,103.669,243.646,103.669z"/>
			<g>
				<path style="fill:#C8D8FD;" d="M206.177,149.238h-6.387c-0.918,0-1.662-0.744-1.662-1.662v-20.192
					c0-0.918,0.744-1.662,1.662-1.662h6.387c0.918,0,1.662,0.744,1.662,1.662v20.192
					C207.839,148.493,207.095,149.238,206.177,149.238z"/>
				<path style="fill:#F9EADA;" d="M209.554,146.029v-18.535c0,0,4.54-1.362,8.807-4.721c4.267-3.359,5.305-9.55,5.305-9.55
					s3.788-0.266,3.144,3.496c-0.478,2.797-2.366,8.414-2.366,8.414s2.996,0,6.81,0s3.359,5.992,0.454,5.992
					c3.546,0,3.152,5.828-0.091,5.828c2.326,0,2.195,5.112-1.18,5.112c1.671,0,1.085,3.444-1.781,4.413
					C225.685,147.483,214.601,146.029,209.554,146.029z"/>
			</g>
		</g>
		<g>
			<path style="fill:#E38483;" d="M454.896,264.671l3.744,20.392l-118.185,11.702c0,0-12.152-5.984-23.281-6.328
				c-11.129-0.344-19.16,1.147-19.16,1.147s-0.459,4.245,4.36,3.671c4.819-0.574,11.014-0.229,12.391,0.344
				c0,0-3.7,4.408,1.186,6.607c0,0-3.469,5.716,2.932,8.111c0,0-0.733,2.98,2.15,4.935c2.883,1.954,8.257,1.173,9.625-1.124
				c3.029,1.075,11.335,1.417,16.368-3.469c0,0,82.037,18.474,119.448,25.309c37.411,6.835,60.256-10.079,58.274-36.839
				c-1.191-16.083-4.578-34.457-4.578-34.457H454.896z"/>
			<g>
				<path style="fill:none;stroke:#DF6666;stroke-width:0.8077;stroke-miterlimit:10;" d="M330.658,314.128
					c0,0-3.86-2.101-5.765-2.003"/>
				
					<line style="fill:none;stroke:#DF6666;stroke-width:0.8077;stroke-miterlimit:10;" x1="323.72" y1="309.193" x2="327.775" y2="308.607"/>
				
					<line style="fill:none;stroke:#DF6666;stroke-width:0.8077;stroke-miterlimit:10;" x1="321.081" y1="304.356" x2="324.892" y2="304.063"/>
				
					<line style="fill:none;stroke:#DF6666;stroke-width:0.8077;stroke-miterlimit:10;" x1="321.766" y1="298.786" x2="324.892" y2="299.128"/>
				
					<line style="fill:none;stroke:#DF6666;stroke-width:0.8077;stroke-miterlimit:10;" x1="321.766" y1="293.07" x2="324.453" y2="294.096"/>
				<path style="fill:none;stroke:#DF6666;stroke-width:0.8077;stroke-miterlimit:10;" d="M346.097,306.408c0,0,2.492,1.368,5.668,0
					"/>
			</g>
			<path style="fill:#C95C5C;" d="M520.17,264.671h-65.274l1.143,6.222c4.456,2.134,12.548,4.767,25.005,4.428
				c17.703-0.482,30.85,12.587,42.646,12.974C522.219,275.788,520.17,264.671,520.17,264.671z"/>
			
				<line style="fill:none;stroke:#763939;stroke-width:0.8077;stroke-miterlimit:10;" x1="458.641" y1="285.063" x2="474.74" y2="284.007"/>
			<path style="fill:#C95C5C;" d="M512.809,317.206c1.122,1.943-0.902,5.211-4.52,7.3c-3.618,2.089-7.46,2.207-8.582,0.264
				c-1.122-1.943,0.902-5.211,4.52-7.3C507.845,315.382,511.687,315.263,512.809,317.206z"/>
		</g>
		<g>
			<path style="fill:#E38483;" d="M244.342,178.778c6.96-10.16,14.201-13.359,14.201-13.359s4.827-5.782,9.324-5.164
				c2.342,0.322,3.362,5.052,3.362,5.052c3.143,1.572,2.414,4.322,2.414,4.322c3.424,1.347,2.807,5.501,2.807,5.501
				s6.904,3.424,5.782,4.599c-2.192,2.295-10.441-1.4-10.441-1.4c-5.22,6.792-18.411,9.15-18.411,9.15s-22.316,67.567-31.46,97.057
				c-9.144,29.489-35.716,29.543-47.194,26.245c-13.097-3.764-26.547-20.793-5.899-51.102
				C189.473,229.37,244.342,178.778,244.342,178.778z"/>
			<path style="fill:#C95C5C;" d="M168.381,295.584c2.768-4.305,17.267,1.248,13.73,7.801
				C178.574,309.939,164.636,301.409,168.381,295.584z"/>
			<path style="fill:none;stroke:#DF6666;stroke-width:0.8077;stroke-miterlimit:10;" d="M276.449,175.129
				c-2.243-1.138-4.25-2.274-10.195-0.873"/>
			<path style="fill:none;stroke:#DF6666;stroke-width:0.8077;stroke-miterlimit:10;" d="M273.643,169.628
				c-4.094-1.277-8.841,0.652-8.841,0.652"/>
			<path style="fill:none;stroke:#DF6666;stroke-width:0.8077;stroke-miterlimit:10;" d="M271.229,165.306
				c-2.313-0.746-6.524,0.13-8.68,1.68"/>
			<path style="fill:none;stroke:#DF6666;stroke-width:0.8077;stroke-miterlimit:10;" d="M266.559,165.342
				c0,0,0.975-1.355,1.514-2.635"/>
		</g>
		<g>
			
				<ellipse transform="matrix(0.1602 -0.9871 0.9871 0.1602 -103.8182 327.9615)" style="fill:#F9EADA;" cx="140.827" cy="224.993" rx="33.236" ry="33.236"/>
			<path style="fill:#4564BD;" d="M150.599,213.519c0,6.007-4.375,12.565-9.772,12.565c-5.397,0-9.772-6.558-9.772-12.565
				s4.375-10.877,9.772-10.877C146.224,202.641,150.599,207.511,150.599,213.519z"/>
			<path style="fill:#4564BD;" d="M164.362,240.953c-1.373-8.027-16.122-11.513-23.535-11.513c-7.412,0-22.162,3.486-23.535,11.513
				c-0.339,1.982-0.716,4.176-1.093,6.356c6.081,6.706,14.862,10.919,24.628,10.919s18.547-4.213,24.628-10.919
				C165.078,245.128,164.701,242.934,164.362,240.953z"/>
		</g>
		<g>
			<circle style="fill:#F9EADA;" cx="577.03" cy="316.715" r="33.236"/>
			<path style="fill:#4564BD;" d="M586.802,305.241c0,6.007-4.375,12.565-9.772,12.565c-5.397,0-9.772-6.558-9.772-12.565
				c0-6.007,4.375-10.877,9.772-10.877C582.427,294.364,586.802,299.234,586.802,305.241z"/>
			<path style="fill:#4564BD;" d="M600.564,332.675c-1.373-8.027-16.122-11.513-23.535-11.513c-7.412,0-22.162,3.486-23.535,11.513
				c-0.339,1.982-0.716,4.176-1.093,6.356c6.081,6.706,14.862,10.919,24.628,10.919c9.766,0,18.547-4.213,24.628-10.919
				C601.281,336.851,600.903,334.657,600.564,332.675z"/>
		</g>
		<g>
			<path style="fill:#F9EADA;" d="M621.921,244.036c-3.24,1.093-4.126,1.98-5.22,5.22c-1.093-3.24-1.98-4.126-5.22-5.22
				c3.24-1.094,4.126-1.98,5.22-5.22C617.795,242.056,618.681,242.942,621.921,244.036z"/>
			<path style="fill:#F9EADA;" d="M302.242,127.621c-6.978,2.355-8.888,4.265-11.243,11.243c-2.355-6.978-4.264-8.888-11.243-11.243
				c6.978-2.355,8.888-4.265,11.243-11.243C293.355,123.356,295.264,125.266,302.242,127.621z"/>
			<path style="fill:#F9EADA;" d="M406.281,95.087c-6.978,2.355-8.888,4.265-11.243,11.243c-2.355-6.978-4.265-8.888-11.243-11.243
				c6.978-2.355,8.888-4.265,11.243-11.243C397.393,90.822,399.302,92.732,406.281,95.087z"/>
			<path style="fill:#F9EADA;" d="M138.685,301.079c-6.978,2.355-8.888,4.264-11.243,11.243c-2.355-6.978-4.264-8.888-11.243-11.243
				c6.978-2.355,8.888-4.264,11.243-11.243C129.798,296.815,131.707,298.724,138.685,301.079z"/>
			<path style="fill:#F9EADA;" d="M609.288,374.591c-6.978,2.355-8.888,4.264-11.243,11.243c-2.355-6.978-4.265-8.888-11.243-11.243
				c6.978-2.355,8.888-4.265,11.243-11.243C600.4,370.326,602.309,372.236,609.288,374.591z"/>
			<path style="fill:#F9EADA;" d="M561.834,171.632c-3.489,1.178-4.444,2.132-5.621,5.621c-1.178-3.489-2.132-4.444-5.621-5.621
				c3.489-1.178,4.444-2.132,5.621-5.621C557.39,169.5,558.345,170.455,561.834,171.632z"/>
			<path style="fill:#F9EADA;" d="M319.799,81.943c-3.489,1.178-4.444,2.132-5.621,5.621c-1.178-3.489-2.132-4.444-5.621-5.621
				c3.489-1.178,4.444-2.132,5.621-5.621C315.355,79.811,316.31,80.766,319.799,81.943z"/>
			<path style="fill:#F9EADA;" d="M113.213,366.279c-3.489,1.178-4.444,2.132-5.621,5.621c-1.178-3.489-2.132-4.444-5.621-5.621
				c3.489-1.178,4.444-2.132,5.621-5.621C108.769,364.147,109.724,365.101,113.213,366.279z"/>
			<path style="fill:#F9EADA;" d="M163.787,162.915c-3.489,1.178-4.444,2.132-5.621,5.621c-1.178-3.489-2.132-4.444-5.621-5.621
				c3.489-1.178,4.444-2.132,5.621-5.621C159.343,160.783,160.298,161.738,163.787,162.915z"/>
		</g>
	</g>
</g>
</svg>
