<?xml version="1.0" encoding="utf-8"?>
<!-- Generator: Adobe Illustrator 27.5.0, SVG Export Plug-In . SVG Version: 6.00 Build 0)  -->
<svg version="1.1" xmlns="http://www.w3.org/2000/svg" xmlns:xlink="http://www.w3.org/1999/xlink" x="0px" y="0px"
	 viewBox="0 0 750 500" style="enable-background:new 0 0 750 500;" xml:space="preserve">
<g id="BACKGROUND">
	<rect style="fill:#36127C;" width="750" height="500"/>
	<path style="fill:#8ECDFF;" d="M365.802,139.409C194.813,139.409,56.2,278.022,56.2,449.011h619.205
		C675.404,278.022,536.79,139.409,365.802,139.409z"/>
</g>
<g id="OBJECTS">
	<g>
		
			<line style="fill:none;stroke:#F04498;stroke-width:0.25;stroke-miterlimit:10;" x1="128.032" y1="362.822" x2="150.566" y2="449.011"/>
		
			<line style="fill:none;stroke:#F04498;stroke-width:0.25;stroke-miterlimit:10;" x1="115.74" y1="415.232" x2="147.156" y2="435.969"/>
		
			<line style="fill:none;stroke:#F04498;stroke-width:0.25;stroke-miterlimit:10;" x1="161.532" y1="376.496" x2="143.603" y2="422.547"/>
		<path style="fill:#F04498;" d="M114.723,414.557c0,0,4.694,17.29,21.722,14.338C134.513,412.902,114.723,414.557,114.723,414.557z
			"/>
		<path style="fill:#F04498;" d="M127.492,360.525c0,0-9.186,28.502,10.135,38.996C147.543,379.519,127.492,360.525,127.492,360.525
			z"/>
		<path style="fill:#F04498;" d="M148.83,409.12c0,0,17.024-9.152,10.547-27.431C141.528,390.242,148.83,409.12,148.83,409.12z"/>
		
			<line style="fill:none;stroke:#F04498;stroke-width:0.25;stroke-miterlimit:10;" x1="426.894" y1="448.91" x2="449.941" y2="375.309"/>
		
			<line style="fill:none;stroke:#F04498;stroke-width:0.25;stroke-miterlimit:10;" x1="429.112" y1="441.826" x2="457.362" y2="432.051"/>
		
			<line style="fill:none;stroke:#F04498;stroke-width:0.25;stroke-miterlimit:10;" x1="434.22" y1="425.513" x2="425.56" y2="391.128"/>
		<path style="fill:none;stroke:#F04498;stroke-width:0.25;stroke-miterlimit:10;" d="M437.913,413.72
			c0.215-0.686,25.917-14.082,25.917-14.082"/>
		<path style="fill:#F04498;" d="M445.627,409.277c0,0,1.394-10.468,18.203-9.638C457.809,411.702,445.627,409.277,445.627,409.277z
			"/>
		<path style="fill:#F04498;" d="M442.717,398.377c0,0-5.271-13.228,7.224-23.068C456.34,391.66,442.717,398.377,442.717,398.377z"
			/>
		<path style="fill:#F04498;" d="M438.417,438.606c0,0,6.434-9.691,19.128-6.547C449.941,443.383,438.417,438.606,438.417,438.606z"
			/>
		<path style="fill:#F04498;" d="M431.57,414.991c0,0-11.996-4.82-6.01-23.863C438.787,404.043,431.57,414.991,431.57,414.991z"/>
		
			<line style="fill:none;stroke:#F04498;stroke-width:0.25;stroke-miterlimit:10;" x1="128.032" y1="405.916" x2="141.545" y2="414.508"/>
		
			<line style="fill:none;stroke:#F04498;stroke-width:0.25;stroke-miterlimit:10;" x1="149.064" y1="443.268" x2="154.979" y2="431.128"/>
		<circle style="fill:#F04498;" cx="126" cy="404.277" r="3.277"/>
		<circle style="fill:#F04498;" cx="446.632" cy="423.683" r="3.277"/>
		<circle style="fill:#F04498;" cx="435.851" cy="394.404" r="3.277"/>
		<circle style="fill:#F04498;" cx="155.844" cy="429.809" r="3.277"/>
		
			<line style="fill:none;stroke:#F04498;stroke-width:0.25;stroke-miterlimit:10;" x1="432.574" y1="431.315" x2="445.627" y2="424.66"/>
		
			<line style="fill:none;stroke:#F04498;stroke-width:0.25;stroke-miterlimit:10;" x1="439.604" y1="408.32" x2="435.851" y2="394.851"/>
	</g>
	<g>
		<g>
			<g>
				<path style="fill:#FFFFFF;" d="M415.37,93.74c17.63,0,31.93,14.29,31.93,31.93c0,17.63-14.3,31.93-31.93,31.93H189.92
					c17.63,0,31.93-14.3,31.93-31.93c0-17.64-14.3-31.93-31.93-31.93h224.93H415.37z"/>
				<path style="fill:#FFFFFF;" d="M415.37,157.701l9,291.31H166.99l-8.76-319.32c1.94,15.78,15.39,28.01,31.69,28.01H415.37z"/>
				<path style="fill:#FEBC07;" d="M221.85,125.67h-63.86v184.95h-28.17V125.67c0-17.64,14.3-31.93,31.93-31.93h28.17
					C207.55,93.74,221.85,108.03,221.85,125.67z"/>
				<path style="fill:#FFFFFF;" d="M157.99,125.67h63.86c0,17.63-14.3,31.93-31.93,31.93c-16.3,0-29.75-12.23-31.69-28.01
					L157.99,125.67z"/>
				<path style="fill:#FFFFFF;" d="M158.23,129.59l9.76,319.32h-10V310.62V125.67C157.99,127,158.07,128.31,158.23,129.59z"/>
			</g>
			<path style="fill:none;stroke:#1D1D1B;stroke-width:0.25;stroke-miterlimit:10;" d="M189.92,93.74
				c17.63,0,31.93,14.29,31.93,31.93c0,17.63-14.3,31.93-31.93,31.93c-16.3,0-29.75-12.23-31.69-28.01
				c-0.16-1.28-0.24-2.59-0.24-3.92h63.86"/>
			<path style="fill:none;stroke:#1D1D1B;stroke-width:0.25;stroke-miterlimit:10;" d="M415.37,93.74
				c17.63,0,31.93,14.29,31.93,31.93c0,17.63-14.3,31.93-31.93,31.93"/>
			<path style="fill:none;stroke:#1D1D1B;stroke-width:0.25;stroke-miterlimit:10;" d="M129.82,125.67
				c0-17.64,14.3-31.93,31.93-31.93"/>
			<polyline style="fill:none;stroke:#1D1D1B;stroke-width:0.25;stroke-miterlimit:10;" points="414.85,93.74 189.92,93.74 
				161.75,93.74 			"/>
			
				<line style="fill:none;stroke:#1D1D1B;stroke-width:0.25;stroke-miterlimit:10;" x1="189.92" y1="157.6" x2="415.37" y2="157.6"/>
			<polyline style="fill:none;stroke:#1D1D1B;stroke-width:0.25;stroke-miterlimit:10;" points="157.99,125.67 157.99,310.62 
				157.99,448.91 			"/>
			<polyline style="fill:none;stroke:#1D1D1B;stroke-width:0.25;stroke-miterlimit:10;" points="129.82,125.67 129.82,310.62 
				157.99,310.62 			"/>
		</g>
		<g>
			
				<rect x="192.979" y="185.681" style="fill:none;stroke:#000000;stroke-width:0.25;stroke-miterlimit:10;" width="19.064" height="19.064"/>
			
				<line style="fill:none;stroke:#000000;stroke-width:0.25;stroke-miterlimit:10;" x1="220.894" y1="205.34" x2="393.83" y2="205.34"/>
		</g>
		<g>
			
				<rect x="192.979" y="224.362" style="fill:none;stroke:#000000;stroke-width:0.25;stroke-miterlimit:10;" width="19.064" height="19.064"/>
			
				<line style="fill:none;stroke:#000000;stroke-width:0.25;stroke-miterlimit:10;" x1="220.894" y1="244.021" x2="393.83" y2="244.021"/>
		</g>
		<g>
			
				<rect x="192.979" y="263.043" style="fill:none;stroke:#000000;stroke-width:0.25;stroke-miterlimit:10;" width="19.064" height="19.064"/>
			
				<line style="fill:none;stroke:#000000;stroke-width:0.25;stroke-miterlimit:10;" x1="220.894" y1="282.702" x2="393.83" y2="282.702"/>
		</g>
		<g>
			
				<rect x="192.979" y="301.724" style="fill:none;stroke:#000000;stroke-width:0.25;stroke-miterlimit:10;" width="19.064" height="19.064"/>
			
				<line style="fill:none;stroke:#000000;stroke-width:0.25;stroke-miterlimit:10;" x1="220.894" y1="321.383" x2="393.83" y2="321.383"/>
		</g>
		<g>
			
				<rect x="192.979" y="340.405" style="fill:none;stroke:#000000;stroke-width:0.25;stroke-miterlimit:10;" width="19.064" height="19.064"/>
			
				<line style="fill:none;stroke:#000000;stroke-width:0.25;stroke-miterlimit:10;" x1="220.894" y1="360.064" x2="393.83" y2="360.064"/>
		</g>
		<g>
			
				<rect x="192.979" y="379.086" style="fill:none;stroke:#000000;stroke-width:0.25;stroke-miterlimit:10;" width="19.064" height="19.064"/>
			
				<line style="fill:none;stroke:#000000;stroke-width:0.25;stroke-miterlimit:10;" x1="220.894" y1="398.745" x2="393.83" y2="398.745"/>
		</g>
	</g>
	<polyline style="fill:none;stroke:#1D1D1B;stroke-width:0.5;stroke-miterlimit:10;" points="46.55,448.91 157.99,448.91 
		177.99,448.91 435.37,448.91 695.32,448.91 	"/>
	<g>
		<path style="fill:#EA5451;" d="M567.83,139.02c0,1.17-0.24,2.28-0.68,3.29c-1.26-0.46-2.58-0.81-3.94-1.02
			c-0.21-0.04-0.43-0.07-0.65-0.09c-1.63-0.21-3.23-0.22-4.76-0.05c-0.36,0.03-0.72,0.08-1.07,0.14c-0.35,0.05-0.7,0.11-1.04,0.19
			c-1.25,0.26-2.45,0.63-3.6,1.11c-0.52-1.08-0.81-2.29-0.81-3.57c0-4.57,3.71-8.28,8.28-8.28S567.83,134.45,567.83,139.02z"/>
		<polygon style="fill:#FEBC07;" points="418.89,320.62 425.56,345.39 403.82,337.96 		"/>
		<polygon style="fill:#F6EDDC;" points="433.97,303.28 447.3,352.82 425.56,345.39 418.89,320.62 		"/>
		<path style="fill:#FEBC07;" d="M695.87,232.8l13.33,49.53l-67.67,18.21l-28.62,7.7l-51.16,13.77l-13.92,3.75l24.49-21.16
			l22.96-19.84c0.96-0.71,1.87-1.49,2.71-2.34l0.01-0.01c4.17-4.21,6.75-10.01,6.75-16.41c0-1.23-0.1-2.45-0.28-3.63l-0.38-4.87
			l18.87-5.08L695.87,232.8z"/>
		<path style="fill:#FEBC07;" d="M551.2,271.73l-7.36,12.08l-15.5,25.45l-19.5,4.02c-2.24,0.24-3.99,2.14-3.99,4.44
			c0,2.47,2,4.47,4.47,4.47c0.06,0,0.12-0.01,0.19-0.02v0.02c0,0,2.24-0.03,5.62-0.02c3.47,0.02,5.78,3.73,4.14,6.78
			c-2.54,4.7-8.51,6.79-16.56,8.95l-55.41,14.92l-13.33-49.54l117.22-31.55H551.2z"/>
		<path style="fill:#F6EDDC;" d="M561.75,322.01l51.16-13.77l-0.64,7.07c-0.82,9.01-8.53,15.83-17.58,15.53c-0.1,0-0.2,0-0.3-0.01
			c-4.88-0.16-9.74,0.67-14.29,2.41l-0.69,0.27c-6.58,2.52-13.93-0.89-16.27-7.53L561.75,322.01z"/>
		<path style="fill:#F6EDDC;" d="M544.2,339.05c0.49,1.52,0.73,3.08,0.73,4.62c0,4.71-2.24,9.26-6.21,12.12
			c-4.76,3.42-7.84,8.71-8.45,14.55l-0.03,0.25c-0.77,7.37-7.95,12.31-15.12,10.4l-3.46-0.93L522.2,343
			c3.14,0.12,7.34-0.38,12.01-2.68c3.8-1.86,6.46-4.24,8.29-6.45L544.2,339.05z"/>
		<path style="fill:#F6EDDC;" d="M578.75,362.43l6.56,0.19c-4.45,5.2-8.27,10.92-11.39,17.04c-1.43,2.82-2.72,5.72-3.84,8.7
			l-9.57,25.36h-8.29c-5.61,0-8.69-6.52-5.13-10.86l4.95-6.02c2.97-3.62,5.1-7.86,6.23-12.41l1.97-7.96
			C562.33,368.01,570.04,362.17,578.75,362.43z"/>
		<path style="fill:#F6EDDC;" d="M635.23,320.34l-9.15,31.21c-6.7,1.43-13.38-2.49-15.42-9.03l-0.34-1.12l16.14-11.9
			C629.97,326.91,632.91,323.8,635.23,320.34z"/>
		<path style="fill:#F6EDDC;" d="M596.7,351.55c3.15,3.54,3.36,8.81,0.49,12.58c-1.77,2.31-3.76,4.91-5.54,7.22
			c-3.05,3.94-4.29,8.97-3.43,13.87l0.51,3.35c0.97,6.26-2.5,12.36-8.37,14.74l-3.02,1.22l-3.42-24.87
			c3.12-6.12,6.94-11.84,11.39-17.04C588.75,358.6,592.56,354.89,596.7,351.55z"/>
		<path style="fill:#F6EDDC;" d="M625.66,384.63l8.88,42.33h-24.75l-1.4-3.08c-2.46-5.42-0.78-11.83,4.02-15.35l3.44-2.52
			c2.37-1.74,4.13-4.17,5.05-6.95L625.66,384.63z"/>
		<path style="fill:#EA5451;" d="M637.32,440.2c0.94,4.49-2.48,8.71-7.07,8.71h-74.34l1.94-3.36c2.51-4.36,6.74-7.47,11.65-8.55
			c6.13-1.36,10.4-6.8,10.4-12.93c0-0.6-0.04-1.21-0.13-1.83l-1.15-8.4c0.61-0.08,1.23-0.12,1.85-0.12
			c7.61,0,13.85,5.81,14.55,13.24h14.77h24.75L637.32,440.2z"/>
		<path style="fill:#EA5451;" d="M555.52,426.96L550,441.58c-1.66,4.41-5.89,7.33-10.61,7.33h-79.48l5.17-6.46
			c3.87-4.83,9.42-8.03,15.54-8.96l6.09-0.92c6.1-0.35,11.3-4.53,12.97-10.4l2.33-8.18c0.9-0.17,1.83-0.27,2.79-0.27
			c7.6,0,13.85,5.81,14.54,13.24H555.52z"/>
		<path style="fill:#6D47F0;" d="M626.08,351.55l-4.29,14.64l3.87,18.44l-4.76,14.43c-0.92,2.78-2.68,5.21-5.05,6.95l-3.44,2.52
			c-4.8,3.52-6.48,9.93-4.02,15.35l1.4,3.08h-14.77c-0.7-7.43-6.94-13.24-14.55-13.24c-0.62,0-1.24,0.04-1.85,0.12l-1.28-9.31
			l3.02-1.22c5.87-2.38,9.34-8.48,8.37-14.74l-0.51-3.35c-0.86-4.9,0.38-9.93,3.43-13.87c1.78-2.31,3.77-4.91,5.54-7.22
			c2.87-3.77,2.66-9.04-0.49-12.58c0.99-0.8,1.99-1.58,3.02-2.34l10.6-7.81l0.34,1.12C612.7,349.06,619.38,352.98,626.08,351.55z"/>
		<path style="fill:#6D47F0;" d="M612.91,308.24l28.62-7.7c-0.17,7.03-2.34,13.92-6.3,19.8c-2.32,3.46-5.26,6.57-8.77,9.16
			l-16.14,11.9l-10.6,7.81c-1.03,0.76-2.03,1.54-3.02,2.34c-4.14,3.34-7.95,7.05-11.39,11.07l-6.56-0.19
			c-8.71-0.26-16.42,5.58-18.51,14.04l-1.97,7.96c-1.13,4.55-3.26,8.79-6.23,12.41l-4.95,6.02c-3.56,4.34-0.48,10.86,5.13,10.86
			h8.29l-4.99,13.24h-36.18c-0.69-7.43-6.94-13.24-14.54-13.24c-0.96,0-1.89,0.1-2.79,0.27l9.65-33.93l3.46,0.93
			c7.17,1.91,14.35-3.03,15.12-10.4l0.03-0.25c0.61-5.84,3.69-11.13,8.45-14.55c3.97-2.86,6.21-7.41,6.21-12.12
			c0-1.54-0.24-3.1-0.73-4.62l-1.7-5.18v-0.01c2.97-3.58,3.78-6.76,3.78-6.76l1.55-1.34l13.92-3.75l1.39,3.97
			c2.34,6.64,9.69,10.05,16.27,7.53l0.69-0.27c4.55-1.74,9.41-2.57,14.29-2.41c0.1,0.01,0.2,0.01,0.3,0.01
			c9.05,0.3,16.76-6.52,17.58-15.53L612.91,308.24z"/>
		<path style="fill:#F04498;" d="M600.42,205.34l22.54,47.08l-18.87,5.08l-3.67-47.07c0-1.7-0.19-3.36-0.55-4.96L600.42,205.34z"/>
		<path style="fill:#F04498;" d="M553.49,267.97l2.2-56.59h0.02c-0.01-0.31-0.02-0.63-0.02-0.95c0-5.76,2.18-11.02,5.77-14.98
			l0.99,3.93l22.74-8.08l-1.49-2.52c8.04,2.1,14.33,8.55,16.17,16.69c0.36,1.6,0.55,3.26,0.55,4.96l3.67,47.07l0.38,4.87
			c0.18,1.18,0.28,2.4,0.28,3.63c0,6.4-2.58,12.2-6.75,16.41l-0.01,0.01c-0.84,0.85-1.75,1.63-2.71,2.34l-22.96,19.84l-28.48-20.79
			l7.36-12.08L553.49,267.97z"/>
		<path style="fill:#F99DA3;" d="M535.6,157.95c0.19-1.33,2.2-2.14,4.49-1.82c-0.44,1.55-0.69,3.17-0.74,4.85
			C537.07,160.62,535.4,159.27,535.6,157.95z"/>
		<path style="fill:#F99DA3;" d="M522.2,343c-3.57-0.12-5.77-1.04-5.77-1.06c0,0-9.2,3.06-13.72-4.04
			c8.05-2.16,14.02-4.25,16.56-8.95c1.64-3.05-0.67-6.76-4.14-6.78c-3.38-0.01-5.62,0.02-5.62,0.02v-0.02
			c-0.07,0.01-0.13,0.02-0.19,0.02c-2.47,0-4.47-2-4.47-4.47c0-2.3,1.75-4.2,3.99-4.44l19.5-4.02l15.5-25.45l28.48,20.79
			l-24.49,21.16l-1.55,1.34c0,0-0.81,3.18-3.78,6.76v0.01c-1.83,2.21-4.49,4.59-8.29,6.45C529.54,342.62,525.34,343.12,522.2,343z"
			/>
		<path style="fill:#F04498;" d="M583.7,188.78l1.49,2.52l-22.74,8.08l-0.99-3.93c4.08-4.53,10.01-7.38,16.6-7.38
			C580.01,188.07,581.9,188.32,583.7,188.78z"/>
		<path style="fill:#FFFFFF;" d="M580.38,164.75c0.03-0.19,0.05-0.39,0.08-0.59C580.44,164.36,580.41,164.56,580.38,164.75z"/>
		<path style="fill:#FFFFFF;" d="M580.25,165.51c0.05-0.25,0.09-0.5,0.13-0.76C580.34,165.01,580.3,165.26,580.25,165.51z"/>
		<path style="fill:#FFFFFF;" d="M579.91,166.99c0.13-0.49,0.24-0.98,0.34-1.48C580.16,166.01,580.05,166.5,579.91,166.99z"/>
		<path style="fill:#FFFFFF;" d="M579.7,167.71c0.08-0.24,0.15-0.48,0.21-0.72C579.85,167.23,579.78,167.47,579.7,167.71z"/>
		<path style="fill:#FFFFFF;" d="M579.72,155.68c-0.08-0.26-0.16-0.52-0.25-0.78C579.56,155.16,579.65,155.42,579.72,155.68z"/>
		<path style="fill:#FFFFFF;" d="M579.47,168.42c0.08-0.23,0.16-0.47,0.23-0.71C579.63,167.95,579.56,168.19,579.47,168.42z"/>
		<path style="fill:#FFFFFF;" d="M579.47,154.9c-0.18-0.51-0.38-1.02-0.6-1.51C579.1,153.88,579.3,154.39,579.47,154.9z"/>
		<path style="fill:#FFFFFF;" d="M578.87,153.39c-0.11-0.25-0.23-0.49-0.34-0.74C578.66,152.89,578.77,153.14,578.87,153.39z"/>
		<path style="fill:#F99DA3;" d="M561.02,163.38c0.11,0.15,0.23,0.3,0.35,0.44l1.7,1.95c-0.4,0.77-0.62,1.64-0.62,2.57
			c0,3.15,2.55,5.7,5.7,5.7c0.65,0,1.27-0.11,1.85-0.32c1.93,2,5.19,1.84,6.91-0.31c-0.4,0.6-0.85,1.18-1.33,1.73l0.04-0.02
			l8.08,13.66c-1.8-0.46-3.69-0.71-5.64-0.71c-6.59,0-12.52,2.85-16.6,7.38l-3.33-13.14l0.2-0.08c-9.39-0.74-17.02-7.75-18.66-16.85
			l6.61-2.73l1.75,1.05"/>
		<path style="fill:#FFFFFF;" d="M578.53,152.65c-1.82-3.69-4.71-6.79-8.29-8.85c0.01-0.01,0.01-0.02,0.01-0.02
			C573.83,145.83,576.73,148.93,578.53,152.65z"/>
		<path style="fill:#EA5451;" d="M580.58,160.61c-0.01-0.3-0.03-0.6-0.07-0.9c-0.15,0.01-0.3,0.01-0.46,0.01
			c-6.07,0-10.98-4.92-10.98-10.98c0-1.78,0.42-3.46,1.17-4.94c-0.98-0.58-2.02-1.07-3.1-1.47c-0.98,2.25-2.93,3.97-5.33,4.65
			c1.21,2.51,1.21,5.53-0.23,8.13l-0.95,1.71c-1.16,2.08-0.99,4.64,0.39,6.56c0.11,0.15,0.23,0.3,0.35,0.44l1.7,1.95l6.75,7.76
			c0.06,0.07,0.12,0.13,0.18,0.19c1.93,2,5.19,1.84,6.91-0.31c0.62-0.88,1.16-1.8,1.64-2.76c0.35-0.72,0.66-1.46,0.92-2.23
			c0.08-0.23,0.16-0.47,0.23-0.71c0.08-0.24,0.15-0.48,0.21-0.72c0.13-0.49,0.24-0.98,0.34-1.48c0.05-0.25,0.09-0.5,0.13-0.76
			c0.03-0.19,0.05-0.39,0.08-0.59c0.06-0.52,0.1-1.05,0.13-1.58c0.01-0.29,0.02-0.59,0.02-0.88c0-0.01,0-0.03,0-0.05
			C580.61,161.3,580.6,160.95,580.58,160.61z"/>
		<path style="fill:#FFFFFF;" d="M570.25,143.78c0,0,0,0.01-0.01,0.02c-0.98-0.58-2.02-1.07-3.1-1.47c0-0.01,0-0.01,0.01-0.02
			C568.23,142.71,569.27,143.2,570.25,143.78z"/>
		<path style="fill:#F99DA3;" d="M569.82,173.53c0.06,0.07,0.12,0.13,0.18,0.19c-0.58,0.21-1.2,0.32-1.85,0.32
			c-3.15,0-5.7-2.55-5.7-5.7c0-0.93,0.22-1.8,0.62-2.57L569.82,173.53z"/>
		<path style="fill:#EA5451;" d="M567.14,142.33c-0.98,2.25-2.93,3.97-5.33,4.65c-0.69-1.46-1.79-2.74-3.24-3.67
			c-1.01-0.64-2-1.27-2.88-1.83c0.35-0.07,0.69-0.14,1.04-0.19c0.35-0.06,0.71-0.11,1.07-0.14c1.53-0.17,3.13-0.16,4.76,0.05
			c0.22,0.02,0.44,0.06,0.65,0.09c0.37,0.06,0.74,0.13,1.11,0.21C565.29,141.71,566.23,141.99,567.14,142.33z"/>
		<path style="fill:#FFFFFF;" d="M564.32,141.5c-0.37-0.08-0.74-0.15-1.11-0.21c1.36,0.21,2.68,0.56,3.94,1.02
			c-0.01,0.01-0.01,0.01-0.01,0.02C566.23,141.99,565.29,141.71,564.32,141.5z"/>
		<path style="fill:#FFFFFF;" d="M563.21,141.29c-0.21-0.03-0.43-0.07-0.65-0.09C562.78,141.22,563,141.25,563.21,141.29z"/>
		<path style="fill:#F99DA3;" d="M548.03,163.7l-1.75-1.05l-6.61,2.73c-0.23-1.2-0.34-2.44-0.34-3.71c0-0.23,0-0.46,0.02-0.69
			c0.05-1.68,0.3-3.3,0.74-4.85c1.7-6.14,6.18-11.13,12-13.54c1.34,2.78,4.18,4.7,7.47,4.7c0.78,0,1.54-0.11,2.25-0.31
			c1.21,2.51,1.21,5.53-0.23,8.13l-0.95,1.71c-1.16,2.08-0.99,4.64,0.39,6.56l-1.94,0.32 M548.84,156.01
			c0.61-1.23,0.4-2.58-0.47-3.01s-2.07,0.22-2.68,1.46c-0.61,1.23-0.39,2.58,0.48,3.01C547.04,157.9,548.23,157.24,548.84,156.01z"
			/>
		<path style="fill:#F99DA3;" d="M561.81,146.98c-0.71,0.2-1.47,0.31-2.25,0.31c-3.29,0-6.13-1.92-7.47-4.7
			c1.15-0.48,2.35-0.85,3.6-1.11c0.88,0.56,1.87,1.19,2.88,1.83C560.02,144.24,561.12,145.52,561.81,146.98z"/>
		<path style="fill:#FFFFFF;" d="M557.8,141.15c-0.36,0.03-0.72,0.08-1.07,0.14C557.08,141.23,557.44,141.18,557.8,141.15z"/>
		<path style="fill:#FFFFFF;" d="M556.73,141.29c-0.35,0.05-0.69,0.12-1.04,0.19C556.03,141.4,556.38,141.34,556.73,141.29z"/>
		<path style="fill:#1D1D1B;" d="M548.37,153c0.87,0.43,1.08,1.78,0.47,3.01c-0.61,1.23-1.8,1.89-2.67,1.46
			c-0.87-0.43-1.09-1.78-0.48-3.01C546.3,153.22,547.5,152.57,548.37,153z"/>
		<path style="fill:none;stroke:#1D1D1B;stroke-width:0.25;stroke-miterlimit:10;" d="M558.128,182.309"/>
		<path style="fill:none;stroke:#1D1D1B;stroke-width:0.25;stroke-miterlimit:10;" d="M570.254,143.774
			c-3.029-1.745-6.541-2.743-10.287-2.743c-2.686,0-5.253,0.513-7.607,1.447"/>
		<path style="fill:none;stroke:#1D1D1B;stroke-width:0.25;stroke-miterlimit:10;" d="M575.617,175.125"/>
		
			<line style="fill:none;stroke:#1D1D1B;stroke-width:0.25;stroke-miterlimit:10;" x1="539.661" y1="165.379" x2="546.277" y2="162.646"/>
		<path style="fill:#1D1D1B;" d="M548.84,156.01c-0.608,1.233-1.805,1.885-2.675,1.457c-0.87-0.428-1.082-1.776-0.474-3.009
			c0.608-1.233,1.805-1.885,2.675-1.457C549.236,153.43,549.448,154.777,548.84,156.01z"/>
		
			<line style="fill:none;stroke:#1D1D1B;stroke-width:0.25;stroke-miterlimit:10;" x1="549.787" y1="147.191" x2="552.404" y2="151.277"/>
		<path style="fill:none;stroke:#1D1D1B;stroke-width:0.25;stroke-miterlimit:10;" d="M539.39,448.915
			c4.72,0,8.947-2.923,10.613-7.339l20.08-53.221c5.898-15.633,16.193-29.227,29.641-39.143l26.736-19.712
			c9.487-6.994,14.797-17.798,15.071-28.961"/>
		
			<line style="fill:none;stroke:#1D1D1B;stroke-width:0.25;stroke-miterlimit:10;" x1="447.296" y1="352.815" x2="433.966" y2="303.283"/>
		
			<line style="fill:none;stroke:#1D1D1B;stroke-width:0.25;stroke-miterlimit:10;" x1="553.487" y1="267.97" x2="560" y2="258.574"/>
		<path style="fill:#F99DA3;" d="M572.299,164.865c0.765,3.052-1.089,6.146-4.14,6.911c-3.052,0.765-6.146-1.089-6.911-4.14
			c-0.765-3.052,1.088-6.146,4.14-6.911C568.44,159.959,571.534,161.813,572.299,164.865z"/>
		<path style="fill:#F99DA3;stroke:#1D1D1B;stroke-width:0.25;stroke-miterlimit:10;" d="M561.474,164.159
			c0.652-1.649,2.063-2.97,3.914-3.435c3.052-0.765,6.146,1.089,6.911,4.14c0.765,3.052-1.089,6.146-4.14,6.911
			c-0.998,0.25-2,0.22-2.925-0.04"/>
		<path style="fill:none;stroke:#1D1D1B;stroke-width:0.25;stroke-miterlimit:10;" d="M555.519,426.957h-36.174
			c-0.698-7.423-6.942-13.233-14.547-13.233c-0.953,0-1.886,0.091-2.788,0.266"/>
		<path style="fill:none;stroke:#1D1D1B;stroke-width:0.25;stroke-miterlimit:10;" d="M634.541,426.957h-39.518
			c-0.698-7.423-6.942-13.233-14.547-13.233c-0.628,0-1.248,0.04-1.855,0.117"/>
		<path style="fill:#D95E5D;" d="M580.05,137.76c6.06,0,10.98,4.92,10.98,10.98c0,5.9-4.67,10.72-10.51,10.97
			c-0.01-0.05-0.01-0.1-0.02-0.15c-0.03-0.35-0.07-0.69-0.13-1.03c-0.05-0.33-0.11-0.66-0.17-0.99c-0.01-0.02-0.01-0.03-0.01-0.05
			c-0.07-0.33-0.15-0.65-0.23-0.98c-0.07-0.28-0.15-0.56-0.24-0.83c-0.07-0.26-0.16-0.52-0.25-0.78c-0.17-0.51-0.37-1.02-0.6-1.51
			c-0.1-0.25-0.21-0.5-0.34-0.74c-1.8-3.72-4.7-6.82-8.28-8.87C572.06,140.21,575.77,137.76,580.05,137.76z"/>
		<path style="fill:#D95E5D;" d="M580.5,159.56c0.01,0.05,0.01,0.1,0.01,0.15c-0.15,0.01-0.3,0.01-0.46,0.01
			c-6.07,0-10.98-4.92-10.98-10.98c0-1.78,0.42-3.46,1.17-4.94c3.58,2.06,6.47,5.16,8.29,8.85c0.11,0.25,0.23,0.49,0.34,0.74
			c0.22,0.49,0.42,1,0.6,1.51c0.09,0.26,0.17,0.52,0.25,0.78c0.09,0.27,0.17,0.55,0.24,0.83c0.08,0.32,0.16,0.65,0.23,0.98
			c0,0.02,0,0.03,0.01,0.05c0.06,0.33,0.12,0.65,0.17,0.99S580.47,159.21,580.5,159.56z"/>
		<circle style="fill:#EA5451;" cx="580.048" cy="148.741" r="10.979"/>
		<path style="fill:#6D47F0;" d="M559.555,239.749c0,2.36-1.913,4.272-4.272,4.272c-2.36,0-4.272-1.913-4.272-4.272
			c0-2.359,1.913-4.272,4.272-4.272C557.642,235.476,559.555,237.389,559.555,239.749z"/>
		<path style="fill:#6D47F0;" d="M579.889,220.447c0,2.36-1.913,4.272-4.272,4.272c-2.359,0-4.272-1.913-4.272-4.272
			c0-2.36,1.913-4.272,4.272-4.272C577.976,216.174,579.889,218.087,579.889,220.447z"/>
		<path style="fill:#6D47F0;" d="M582.465,267.97c0,2.359-1.913,4.272-4.272,4.272c-2.359,0-4.272-1.913-4.272-4.272
			c0-2.36,1.913-4.272,4.272-4.272C580.552,263.698,582.465,265.611,582.465,267.97z"/>
		<path style="fill:#6D47F0;" d="M601.71,244.021c0,2.359-1.913,4.272-4.272,4.272c-2.36,0-4.272-1.913-4.272-4.272
			c0-2.36,1.913-4.272,4.272-4.272C599.797,239.749,601.71,241.661,601.71,244.021z"/>
		<path style="fill:#6D47F0;" d="M589.462,189.917c0,2.359-1.913,4.272-4.272,4.272c-2.36,0-4.272-1.913-4.272-4.272
			c0-2.36,1.913-4.272,4.272-4.272C587.55,185.644,589.462,187.557,589.462,189.917z"/>
		<path style="fill:#6D47F0;" d="M614.592,221.076c0,2.359-1.913,4.272-4.272,4.272c-2.36,0-4.272-1.913-4.272-4.272
			c0-2.36,1.913-4.272,4.272-4.272C612.68,216.804,614.592,218.717,614.592,221.076z"/>
		<path style="fill:#6D47F0;" d="M587.972,294.21c0,2.36-1.913,4.272-4.272,4.272c-2.36,0-4.272-1.913-4.272-4.272
			c0-2.359,1.913-4.272,4.272-4.272C586.06,289.937,587.972,291.85,587.972,294.21z"/>
		<path style="fill:#6D47F0;" d="M554.112,275.008c0,2.359-1.913,4.272-4.272,4.272c-2.36,0-4.272-1.913-4.272-4.272
			c0-2.36,1.913-4.272,4.272-4.272C552.199,270.735,554.112,272.648,554.112,275.008z"/>
		<circle style="fill:#6D47F0;" cx="556.21" cy="205.34" r="4.272"/>
	</g>
	
		<line style="fill:none;stroke:#000000;stroke-width:0.25;stroke-miterlimit:10;" x1="157.99" y1="125.67" x2="166.99" y2="449.011"/>
	<g>
		<g>
			<g>
				
					<rect x="21.98" y="379.495" transform="matrix(0.3128 -0.9498 0.9498 0.3128 -350.4751 289.0041)" style="fill:#FEBC07;" width="5" height="14.411"/>
			</g>
			<g>
				
					<rect x="84.562" y="383.136" transform="matrix(0.3128 -0.9498 0.9498 0.3128 -310.9261 350.9503)" style="fill:#E9488E;" width="5" height="14.411"/>
			</g>
			<g>
				
					<rect x="328.727" y="23.331" transform="matrix(0.3128 -0.9498 0.9498 0.3128 198.6259 335.5949)" style="fill:#FEBC07;" width="5" height="14.411"/>
			</g>
			<g>
				
					<rect x="122.81" y="288.555" transform="matrix(0.3128 -0.9498 0.9498 0.3128 -194.8049 322.2772)" style="fill:#E9488E;" width="5" height="14.411"/>
			</g>
			<g>
				
					<rect x="31.933" y="303.2" transform="matrix(0.9997 -0.026 0.026 0.9997 -8.0743 1.0023)" style="fill:#E9488E;" width="5" height="14.411"/>
			</g>
			<g>
				
					<rect x="79.856" y="337.934" transform="matrix(0.52 -0.8542 0.8542 0.52 -249.0019 237.7881)" style="fill:#FFFFFF;" width="14.411" height="5"/>
			</g>
			<g>
				
					<rect x="486.434" y="179.699" transform="matrix(0.52 -0.8542 0.8542 0.52 81.3308 509.1216)" style="fill:#8ECDFF;" width="14.411" height="5"/>
			</g>
			<g>
				
					<rect x="726.42" y="242.075" transform="matrix(0.3404 -0.9403 0.9403 0.3404 246.3832 849.7991)" style="fill:#F04498;" width="5" height="14.411"/>
			</g>
			<g>
				
					<rect x="92.296" y="196.031" transform="matrix(0.52 -0.8542 0.8542 0.52 -121.8185 180.2957)" style="fill:#FEBC07;" width="14.411" height="5"/>
			</g>
			<g>
				
					<rect x="249.402" y="56.421" transform="matrix(0.52 -0.8542 0.8542 0.52 72.8519 247.4763)" style="fill:#E9488E;" width="14.411" height="5"/>
			</g>
			<g>
				
					<rect x="107.558" y="47.088" transform="matrix(0.3128 -0.9498 0.9498 0.3128 24.0658 141.848)" style="fill:#E9488E;" width="5" height="14.411"/>
			</g>
			<g>
				
					<rect x="90.782" y="106.27" transform="matrix(0.8141 -0.5808 0.5808 0.8141 -48.5598 75.277)" style="fill:#FFFFFF;" width="5" height="14.411"/>
			</g>
			<g>
				
					<rect x="695.095" y="153.144" transform="matrix(0.4943 -0.8693 0.8693 0.4943 219.824 689.1865)" style="fill:#8ECDFF;" width="14.411" height="5"/>
			</g>
			<g>
				
					<rect x="693.85" y="53.741" transform="matrix(0.4943 -0.8693 0.8693 0.4943 305.6059 637.8429)" style="fill:#EA5451;" width="14.411" height="5"/>
			</g>
			<g>
				
					<rect x="597.545" y="42.163" transform="matrix(0.5239 -0.8518 0.8518 0.5239 249.8607 536.3646)" style="fill:#FEBC07;" width="14.411" height="5"/>
			</g>
			<g>
				
					<rect x="373.53" y="63.65" transform="matrix(0.4943 -0.8693 0.8693 0.4943 135.0201 364.4097)" style="fill:#6D47F0;" width="14.411" height="5"/>
			</g>
			<g>
				
					<rect x="644.012" y="166.942" transform="matrix(0.702 -0.7122 0.7122 0.702 68.636 512.3252)" style="fill:#FFFFFF;" width="5" height="14.411"/>
			</g>
			<g>
				
					<rect x="452.228" y="221.369" transform="matrix(0.9662 -0.2578 0.2578 0.9662 -43.5609 124.9793)" style="fill:#FEBC07;" width="5" height="14.411"/>
			</g>
			<g>
				
					<rect x="485.257" y="340.835" transform="matrix(0.9662 -0.2578 0.2578 0.9662 -73.2478 137.5352)" style="fill:#E9488E;" width="5" height="14.411"/>
			</g>
			<g>
				
					<rect x="585.96" y="98.846" transform="matrix(0.2564 -0.9666 0.9666 0.2564 343.1224 648.6979)" style="fill:#6D47F0;" width="14.411" height="5"/>
			</g>
			<g>
				
					<rect x="515.835" y="44.488" transform="matrix(0.7439 -0.6683 0.6683 0.7439 98.2207 359.6662)" style="fill:#FEBC07;" width="5" height="14.411"/>
			</g>
			<g>
				
					<rect x="50.367" y="163.56" transform="matrix(0.9338 -0.3579 0.3579 0.9338 -55.6176 31.6037)" style="fill:#E9488E;" width="14.411" height="5"/>
			</g>
			<g>
				
					<rect x="27.228" y="222.458" transform="matrix(0.2948 -0.9556 0.9556 0.2948 -190.6768 191.5371)" style="fill:#6D47F0;" width="14.411" height="5"/>
			</g>
			<g>
				
					<rect x="39.559" y="51.716" transform="matrix(0.7908 -0.6121 0.6121 0.7908 -27.2658 38.0709)" style="fill:#FEBC07;" width="5" height="14.411"/>
			</g>
			<g>
				
					<rect x="701.373" y="402.034" transform="matrix(0.7326 -0.6807 0.6807 0.7326 -85.8712 590.493)" style="fill:#FEBC07;" width="14.411" height="5"/>
			</g>
		</g>
		<path style="fill:none;stroke:#8ECDFF;stroke-width:0.5;stroke-miterlimit:10;" d="M55.4,114.342c0,0-9.04-7.302-13.489-1.148
			c-4.377,6.055,4.252,15.341,7.241,11.206c2.792-3.862-8.538-9.432-13.029-3.218c-4.158,5.752,4.107,15.561,6.565,12.161
			c3.551-4.912-8.722-9.181-13.244-2.926c-3.281,4.539,5.634,10.977,5.634,10.977"/>
		<path style="fill:none;stroke:#FEBC07;stroke-width:0.5;stroke-miterlimit:10;" d="M197.058,48.866c0,0,5.687-10.134-1.124-13.491
			c-6.702-3.303-14.414,6.757-9.837,9.013c4.275,2.107,7.871-9.995,0.994-13.384c-6.366-3.137-14.655,6.651-10.892,8.506
			c5.437,2.679,7.594-10.135,0.67-13.547c-5.024-2.476-9.88,7.391-9.88,7.391"/>
		<path style="fill:none;stroke:#F04498;stroke-width:0.5;stroke-miterlimit:10;" d="M82.081,248.219c0,0-9.04-7.302-13.488-1.148
			c-4.377,6.055,4.252,15.341,7.241,11.206c2.792-3.862-8.538-9.432-13.029-3.218c-4.158,5.752,4.107,15.561,6.565,12.161
			c3.551-4.912-8.722-9.181-13.244-2.926c-3.281,4.539,5.634,10.977,5.634,10.977"/>
		<path style="fill:none;stroke:#8ECDFF;stroke-width:0.5;stroke-miterlimit:10;" d="M499.602,107.043
			c0,0,5.687-10.134-1.124-13.491c-6.702-3.303-14.414,6.757-9.837,9.013c4.275,2.107,7.871-9.995,0.994-13.384
			c-6.366-3.138-14.655,6.651-10.892,8.506c5.437,2.679,7.594-10.134,0.67-13.547c-5.024-2.476-9.88,7.391-9.88,7.391"/>
		<path style="fill:none;stroke:#F04498;stroke-width:0.5;stroke-miterlimit:10;" d="M667.022,31.707c0,0-5.811-10.063-12.174-5.92
			c-6.261,4.077-1.547,15.844,2.728,13.059c3.994-2.6-4.576-11.87-11.001-7.687c-5.948,3.873-1.762,15.997,1.755,13.708
			c5.079-3.307-4.838-11.703-11.307-7.491c-4.694,3.056,1.312,12.268,1.312,12.268"/>
		<path style="fill:none;stroke:#FEBC07;stroke-width:0.5;stroke-miterlimit:10;" d="M671.744,136.665c0,0,10.295-5.39,6.418-11.919
			c-3.814-6.424-15.766-2.201-13.161,2.186c2.433,4.098,12.049-4.082,8.135-10.674c-3.623-6.103-15.911-2.422-13.768,1.186
			c3.094,5.212,11.893-4.35,7.952-10.987c-2.86-4.816-12.312,0.804-12.312,0.804"/>
		<path style="fill:none;stroke:#8ECDFF;stroke-width:0.5;stroke-miterlimit:10;" d="M705.777,350.42c0,0,10.295-5.39,6.418-11.919
			c-3.814-6.424-15.766-2.201-13.161,2.186c2.433,4.098,12.049-4.082,8.135-10.674c-3.623-6.103-15.911-2.422-13.768,1.186
			c3.094,5.211,11.893-4.35,7.952-10.987c-2.86-4.816-12.312,0.804-12.312,0.804"/>
	</g>
</g>
</svg>
