<svg xmlns="http://www.w3.org/2000/svg" version="1.1" xmlns:xlink="http://www.w3.org/1999/xlink" xmlns:svgjs="http://svgjs.dev/svgjs" width="128" height="128" viewBox="0 0 128 128"><g transform="matrix(0.8046875,0,0,0.8046875,12.333870967741937,30.038696188116766)"><svg viewBox="0 0 155 102" data-background-color="#ffffff" preserveAspectRatio="xMidYMid meet" height="84" width="128" xmlns="http://www.w3.org/2000/svg" xmlns:xlink="http://www.w3.org/1999/xlink"><g id="tight-bounds" transform="matrix(1,0,0,1,0.25,0.2481255857544511)"><svg viewBox="0 0 154.5 101.50374882849111" height="101.50374882849111" width="154.5"><g><svg viewBox="0 0 154.5 101.50374882849111" height="101.50374882849111" width="154.5"><g><svg viewBox="0 0 154.5 101.50374882849111" height="101.50374882849111" width="154.5"><g id="textblocktransform"><svg viewBox="0 0 154.5 101.50374882849111" height="101.50374882849111" width="154.5" id="textblock"><g><svg viewBox="0 0 154.5 101.50374882849111" height="101.50374882849111" width="154.5"><g transform="matrix(1,0,0,1,0,0)"><svg width="154.5" viewBox="0.9 -35.05 53.35 35.05" height="101.50374882849111" data-palette-color="#001f3f"><path d="M5.85 0L5.85-1.5 24.25-1.5 13.65-30.65 2.5 0 0.9 0 13.65-35.05 26.4 0 5.85 0ZM37.05 0L37.05 0 32.25 0 32.25-35 37.05-35Q44.25-35 49.25-29.7 54.25-24.4 54.25-17.5 54.25-10.6 49.25-5.3 44.25 0 37.05 0ZM33.75-1.5L37.05-1.5Q43.6-1.5 48.17-6.33 52.75-11.15 52.75-17.5 52.75-23.85 48.17-28.68 43.6-33.5 37.05-33.5L37.05-33.5 33.75-33.5 33.75-1.5Z" opacity="1" transform="matrix(1,0,0,1,0,0)" fill="#000000" class="wordmark-text-0" data-fill-palette-color="primary" id="text-0"></path></svg></g></svg></g></svg></g></svg></g></svg></g><defs></defs></svg><rect width="154.5" height="101.50374882849111" fill="none" stroke="none" visibility="hidden"></rect></g></svg></g></svg>